<?xml version="1.0" encoding="UTF-8" standalone="no"?>
<!DOCTYPE svg PUBLIC "-//W3C//DTD SVG 1.1//EN" "http://www.w3.org/Graphics/SVG/1.1/DTD/svg11.dtd">
<svg width="100%" height="100%" viewBox="0 0 100 100" version="1.1" xmlns="http://www.w3.org/2000/svg" xmlns:xlink="http://www.w3.org/1999/xlink" xml:space="preserve" xmlns:serif="http://www.serif.com/" style="fill-rule:evenodd;clip-rule:evenodd;stroke-linecap:round;stroke-linejoin:round;">
    <g transform="matrix(1,0,0,1.00123,-0.0922862,-0.0677067)">
        <rect x="0.092" y="0.068" width="99.954" height="99.877" style="fill:rgb(255,133,0);"/>
    </g>
    <g transform="matrix(0.0947445,0,0,0.0947445,12.1022,11.1303)">
        <path d="M175.196,533.333C129.663,500.97 100,448.073 100,388.31C100,306.669 160,231.25 250,216.667C278.231,149.546 345.047,100 422.977,100C522.8,100 604.39,177.417 610,275C662.977,298.163 700,355.01 700,416.563C700,468.607 673.533,514.463 633.333,541.39M400,700L400,366.667M400,700L300,600M400,700L500,600" style="fill:none;fill-rule:nonzero;stroke:white;stroke-width:66.67px;"/>
    </g>
</svg>

